<svg preserveAspectRatio="none" width="100%" height="100%" overflow="visible" style="display: block;" viewBox="0 0 24 24" fill="none" xmlns="http://www.w3.org/2000/svg">
<g id="outbox_alt">
<mask id="mask0_7184_513" style="mask-type:alpha" maskUnits="userSpaceOnUse" x="0" y="0" width="24" height="24">
<rect id="Bounding box" width="24" height="24" fill="var(--fill-0, #D9D9D9)"/>
</mask>
<g mask="url(#mask0_7184_513)">
<path id="outbox_alt_2" d="M16.2 12.9C16.5667 12.7167 16.75 12.4167 16.75 12C16.75 11.5833 16.5667 11.2833 16.2 11.1L7.45 6.725C7.11667 6.55833 6.79167 6.57083 6.475 6.7625C6.15833 6.95417 6 7.24167 6 7.625V16.375C6 16.7583 6.15833 17.0458 6.475 17.2375C6.79167 17.4292 7.11667 17.4417 7.45 17.275L16.2 12.9ZM8 15V13L11 12L8 11V9L14.5 12L8 15ZM5 21C4.45 21 3.97917 20.8042 3.5875 20.4125C3.19583 20.0208 3 19.55 3 19V5C3 4.45 3.19583 3.97917 3.5875 3.5875C3.97917 3.19583 4.45 3 5 3H19C19.55 3 20.0208 3.19583 20.4125 3.5875C20.8042 3.97917 21 4.45 21 5V19C21 19.55 20.8042 20.0208 20.4125 20.4125C20.0208 20.8042 19.55 21 19 21H5ZM5 19H19V5H5V19Z" fill="var(--fill-0, #16191C)"/>
</g>
</g>
</svg>
