<svg preserveAspectRatio="none" width="100%" height="100%" overflow="visible" style="display: block;" viewBox="0 0 18 18" fill="none" xmlns="http://www.w3.org/2000/svg">
<g id="Vector">
<path d="M3 0C1.34315 0 0 1.34315 0 3V6H2V3C2 2.44772 2.44772 2 3 2H6V0H3Z" fill="var(--fill-0, #16191C)"/>
<path d="M12 0V2H15C15.5523 2 16 2.44772 16 3V6H18V3C18 1.34315 16.6569 0 15 0H12Z" fill="var(--fill-0, #16191C)"/>
<path d="M6 16H3C2.44772 16 2 15.5523 2 15V12H0V15C0 16.6569 1.34315 18 3 18H6V16Z" fill="var(--fill-0, #16191C)"/>
<path d="M12 18H15C16.6569 18 18 16.6569 18 15V12H16V15C16 15.5523 15.5523 16 15 16H12V18Z" fill="var(--fill-0, #16191C)"/>
<path d="M4 5C4 4.44772 4.44772 4 5 4H13C13.5523 4 14 4.44772 14 5V13C14 13.5523 13.5523 14 13 14H5C4.44772 14 4 13.5523 4 13V5Z" fill="var(--fill-0, #16191C)"/>
</g>
</svg>
