<svg preserveAspectRatio="none" width="100%" height="100%" overflow="visible" style="display: block;" viewBox="0 0 24 24" fill="none" xmlns="http://www.w3.org/2000/svg">
<g id="status_icon">
<mask id="mask0_7184_508" style="mask-type:alpha" maskUnits="userSpaceOnUse" x="0" y="0" width="24" height="24">
<rect id="Bounding box" width="24" height="24" fill="var(--fill-0, #D9D9D9)"/>
</mask>
<g mask="url(#mask0_7184_508)">
<path id="toggle_off" d="M7 18C5.33333 18 3.91667 17.4167 2.75 16.25C1.58333 15.0833 1 13.6667 1 12C1 10.3333 1.58333 8.91667 2.75 7.75C3.91667 6.58333 5.33333 6 7 6H17C18.6667 6 20.0833 6.58333 21.25 7.75C22.4167 8.91667 23 10.3333 23 12C23 13.6667 22.4167 15.0833 21.25 16.25C20.0833 17.4167 18.6667 18 17 18H7ZM7 16H17C18.1 16 19.0417 15.6083 19.825 14.825C20.6083 14.0417 21 13.1 21 12C21 10.9 20.6083 9.95833 19.825 9.175C19.0417 8.39167 18.1 8 17 8H7C5.9 8 4.95833 8.39167 4.175 9.175C3.39167 9.95833 3 10.9 3 12C3 13.1 3.39167 14.0417 4.175 14.825C4.95833 15.6083 5.9 16 7 16ZM7 15C7.83333 15 8.54167 14.7083 9.125 14.125C9.70833 13.5417 10 12.8333 10 12C10 11.1667 9.70833 10.4583 9.125 9.875C8.54167 9.29167 7.83333 9 7 9C6.16667 9 5.45833 9.29167 4.875 9.875C4.29167 10.4583 4 11.1667 4 12C4 12.8333 4.29167 13.5417 4.875 14.125C5.45833 14.7083 6.16667 15 7 15Z" fill="var(--fill-0, #16191C)"/>
<rect id="Rectangle 323833" x="12" y="11" width="7" height="2" fill="var(--fill-0, #16191C)"/>
</g>
</g>
</svg>
